<svg xmlns="http://www.w3.org/2000/svg" viewBox="0 0 128 128">
  <defs>
    <radialGradient id="bg" cx="35%" cy="30%" r="80%">
      <stop offset="0%" stop-color="#f6fbff"/>
      <stop offset="70%" stop-color="#eef3ff"/>
      <stop offset="100%" stop-color="#e9ecff"/>
    </radialGradient>

    <linearGradient id="neon" x1="0" y1="0" x2="1" y2="1">
      <stop offset="0%" stop-color="#0077FF"/>
      <stop offset="55%" stop-color="#6A00FF"/>
      <stop offset="100%" stop-color="#FF007A"/>
    </linearGradient>

    <filter id="glow" x="-50%" y="-50%" width="200%" height="200%">
      <feGaussianBlur stdDeviation="2.6" result="b"/>
      <feMerge>
        <feMergeNode in="b"/>
        <feMergeNode in="SourceGraphic"/>
      </feMerge>
    </filter>
  </defs>

  <rect width="128" height="128" rx="28" fill="url(#bg)"/>

  <g opacity="0.18" fill="#5b6bff">
    <circle cx="24" cy="36" r="2.2"/><circle cx="42" cy="26" r="1.7"/>
    <circle cx="92" cy="34" r="1.8"/><circle cx="106" cy="54" r="2.0"/>
    <circle cx="86" cy="102" r="2.1"/><circle cx="40" cy="96" r="1.9"/>
  </g>

  <g filter="url(#glow)">
    <path d="M30 44h68v10H69v50H59V54H30z" fill="url(#neon)"/>
    <path d="M36 94c7 8 17 12 28 12 14 0 25-6 25-18 0-10-7-14-19-16l-8-2c-6-1-8-3-8-6 0-4 5-7 12-7 7 0 13 2 18 7l7-7c-6-7-15-11-25-11-12 0-23 6-23 18 0 9 6 13 17 15l10 2c6 1 8 3 8 7 0 5-6 7-14 7-9 0-16-4-20-9z" fill="url(#neon)"/>
  </g>
</svg>
